#!OML:ASF Y:\EmotionMaleHayes\Project 1\Capture day 1\Session 1\Male1.ASF
:FULLY-SPECIFIED
:DEGREES
32
root -29.8295 16.6359 1.9424 51.3838 87.0165 47.8528
lowerback 5.71443 1.05629 -3.87344
upperback 2.81472 1.2692 0.0678883
thorax -0.385806 0.625468 2.16629
lowerneck -22.3023 2.42097 6.93626
upperneck 30.4221 3.28162 -5.551
head 14.4107 1.60641 -2.79882
rclavicle -6.53505e-015 -4.77083e-015
rhumerus -41.1022 13.534 -91.1207
rradius 39.5627
rwrist -12.9422
rhand -13.0646 -32.5955
rfingers 7.12502
rthumb 13.031 -62.1685
lclavicle -6.53505e-015 -4.77083e-015
lhumerus -37.9021 -19.9691 89.1825
lradius 50.4205
lwrist 9.90237
lhand -26.3383 -26.1763
lfingers 7.12502
lthumb 0.218984 3.8033
rfemur 4.94351 -2.4787 15.0056
rtibia 10.6656
rfoot -28.4402 -4.49506
rtoes 9.11496
lfemur 5.26791 2.43381 -13.172
ltibia 13.9107
lfoot -25.4925 14.3099
ltoes -22.4733
33
root -29.8038 16.6219 1.95375 44.0392 86.8795 40.5754
lowerback 5.89727 1.2268 -3.77454
upperback 3.23479 1.51488 0.248535
thorax -0.072569 0.741393 2.28311
lowerneck -22.2228 2.44085 6.89613
upperneck 29.794 3.38833 -5.88362
head 14.1322 1.58484 -2.89444
rclavicle -1.2921e-015 8.34896e-015
rhumerus -40.4638 14.0023 -90.9859
rradius 39.1725
rwrist -13.7165
rhand -14.0425 -32.761
rfingers 7.12502
rthumb 12.0881 -62.3919
lclavicle -1.2921e-015 8.34896e-015
lhumerus -38.056 -19.7417 89.4217
lradius 51.4591
lwrist 10.5817
lhand -27.7095 -27.6724
lfingers 7.12502
lthumb -1.10532 2.30448
rfemur 4.80025 -2.37791 15.2815
rtibia 11.1642
rfoot -28.6271 -4.33166
rtoes 7.95968
lfemur 4.14944 2.93706 -12.935
ltibia 16.5131
lfoot -25.8731 14.2875
ltoes -20.9159
34
root -29.7863 16.6065 1.96435 31.736 87.2798 28.2178
lowerback 6.3758 1.27351 -2.79973
upperback 3.42744 1.62238 0.390452
thorax -0.127474 0.807575 1.86772
lowerneck -22.0369 2.43406 6.94642
upperneck 29.2636 3.34608 -5.95183
head 13.8616 1.55282 -2.92603
rclavicle 5.46658e-015 2.5842e-015
rhumerus -39.9465 14.1044 -91.084
rradius 38.5457
rwrist -13.963
rhand -14.8854 -32.59
rfingers 7.12502
rthumb 11.2753 -62.267
lclavicle 5.46658e-015 2.5842e-015
lhumerus -38.5484 -19.6645 89.5077
lradius 52.5954
lwrist 11.691
lhand -27.8936 -29.2764
lfingers 7.12502
lthumb -1.28314 0.699483
rfemur 4.64466 -2.35046 16.2979
rtibia 11.4798
rfoot -28.7439 -4.40415
rtoes 7.70192
lfemur 2.74811 3.09437 -12.089
ltibia 19.2344
lfoot -26.0569 14.4913
ltoes -19.664
35
root -29.7599 16.5809 1.96864 37.4734 87.1994 34.0602
lowerback 6.84093 1.38 -2.72308
upperback 3.64851 1.76644 0.190515
thorax -0.156234 0.884982 1.6014
lowerneck -21.599 2.28742 7.06818
upperneck 28.694 3.09165 -6.0076
head 13.5077 1.44422 -3.00087
rclavicle 9.14409e-015 1.39149e-015
rhumerus -39.5246 13.8483 -91.1687
rradius 37.9271
rwrist -13.8117
rhand -15.6331 -32.4575
rfingers 7.12502
rthumb 10.5541 -62.1725
lclavicle 9.14409e-015 1.39149e-015
lhumerus -39.2733 -19.9664 89.7802
lradius 53.4419
lwrist 12.0924
lhand -29.3856 -31.0652
lfingers 7.12502
lthumb -2.72409 -1.10285
rfemur 4.8083 -2.7543 15.8739
rtibia 11.6935
rfoot -28.9117 -4.28575
rtoes 7.23387
lfemur 1.40877 3.27643 -12.5598
ltibia 22.1557
lfoot -26.1545 14.6275
ltoes -18.165
36
root -29.7339 16.5553 1.97602 28.2782 87.2742 24.9465
lowerback 7.25961 1.51643 -2.04207
upperback 3.98573 1.99622 0.243263
thorax -0.031449 1.01055 1.252
lowerneck -21.4797 2.14879 6.87889
upperneck 28.1618 2.91725 -5.99486
head 13.2412 1.33803 -2.98126
rclavicle 9.93923e-016 -3.57812e-015
rhumerus -38.8499 13.6843 -91.1529
rradius 37.5896
rwrist -13.5602
rhand -16.1217 -33.6445
rfingers 7.12502
rthumb 10.0827 -63.383
lclavicle 9.93923e-016 -3.57812e-015
lhumerus -39.5166 -19.9283 89.973
lradius 54.2196
lwrist 12.846
lhand -30.3356 -31.525
lfingers 7.12502
lthumb -3.64157 -1.5764
rfemur 4.85437 -2.84778 16.3666
rtibia 11.9788
rfoot -29.1057 -4.22979
rtoes 6.56702
lfemur 0.0178682 3.87905 -12.0409
ltibia 25.2491
lfoot -26.0014 14.8767
ltoes -17.8072
37
root -29.7111 16.5296 1.98137 11.5409 87.3749 8.36445
lowerback 7.78861 1.61127 -1.10492
upperback 4.37457 2.19574 0.485943
thorax 0.0942739 1.12734 0.953396
lowerneck -21.3933 2.03425 6.48521
upperneck 27.5961 2.82568 -5.91317
head 12.9742 1.25472 -2.8841
rclavicle 1.93318e-014 1.25234e-014
rhumerus -38.0637 13.7026 -91.1012
rradius 37.3372
rwrist -13.3627
rhand -16.6903 -35.0336
rfingers 7.12502
rthumb 9.53414 -64.7979
lclavicle 1.93318e-014 1.25234e-014
lhumerus -39.5956 -19.668 90.3073
lradius 54.3764
lwrist 12.7346
lhand -31.7755 -32.2902
lfingers 7.12502
lthumb -5.03196 -2.36994
rfemur 5.05311 -2.79117 17.3103
rtibia 12.063
rfoot -29.2639 -4.16171
rtoes 6.37735
lfemur -1.35927 4.43837 -11.0865
ltibia 28.4279
lfoot -25.7166 15.02
ltoes -17.1863
38
root -29.6923 16.502 1.98256 -4.45177 87.487 -7.45517
lowerback 8.3969 1.64797 -0.14366
upperback 4.75559 2.33 0.675971
thorax 0.179009 1.2174 0.588675
lowerneck -21.1531 1.87587 6.13384
upperneck 26.8809 2.62357 -5.73394
head 12.6107 1.14207 -2.77221
rclavicle -4.77083e-015 -1.39149e-015
rhumerus -37.1645 13.6511 -91.0901
rradius 36.8955
rwrist -13.3727
rhand -17.5314 -35.7048
rfingers 7.12502
rthumb 8.72257 -65.5045
lclavicle -4.77083e-015 -1.39149e-015
lhumerus -39.6755 -19.505 90.5956
lradius 54.4703
lwrist 12.9612
lhand -32.6801 -32.6597
lfingers 7.12502
lthumb -5.90538 -2.76201
rfemur 5.37325 -2.87592 18.1711
rtibia 12.0105
rfoot -29.3017 -4.19354
rtoes 6.06506
lfemur -2.87413 4.85598 -10.2541
ltibia 31.6789
lfoot -25.373 14.8353
ltoes -15.124
39
root -29.6704 16.4699 1.98157 -20.4586 87.4356 -23.3996
lowerback 8.88217 1.68659 0.906789
upperback 5.13789 2.48173 0.762212
thorax 0.347063 1.32327 0.0696998
lowerneck -21.0911 1.71032 5.96668
upperneck 26.2274 2.34796 -5.58956
head 12.3129 1.00917 -2.72077
rclavicle 1.3418e-014 1.21259e-014
rhumerus -36.0603 13.5747 -91.1897
rradius 36.3355
rwrist -13.4696
rhand -18.3613 -36.2851
rfingers 7.12502
rthumb 7.9216 -66.1167
lclavicle 1.3418e-014 1.21259e-014
lhumerus -39.6114 -19.441 90.7839
lradius 54.3348
lwrist 13.4324
lhand -33.0326 -32.638
lfingers 7.12502
lthumb -6.24565 -2.7501
rfemur 5.62475 -3.09169 18.9853
rtibia 11.9841
rfoot -29.2447 -4.19247
rtoes 5.35743
lfemur -4.60673 5.36019 -9.48726
ltibia 34.9363
lfoot -25.071 14.569
ltoes -13.0833
40
root -29.6445 16.444 1.98144 -36.8448 86.9328 -39.7921
lowerback 9.37373 1.80956 2.09088
upperback 5.45056 2.76419 0.960914
thorax 0.451321 1.49905 -0.421258
lowerneck -21.1422 1.53575 5.83674
upperneck 25.7938 2.08168 -5.51621
head 12.1307 0.877394 -2.70626
rclavicle -1.63003e-014 1.21259e-014
rhumerus -34.9486 13.4872 -91.27
rradius 35.6966
rwrist -13.2907
rhand -19.1294 -36.6258
rfingers 7.12502
rthumb 7.1802 -66.484
lclavicle -1.63003e-014 1.21259e-014
lhumerus -39.5534 -19.2557 91.1622
lradius 53.8334
lwrist 13.6
lhand -33.6361 -32.4317
lfingers 7.12502
lthumb -6.82829 -2.56178
rfemur 5.76683 -3.16551 20.1323
rtibia 11.9912
rfoot -29.311 -4.10478
rtoes 4.76077
lfemur -6.41596 6.1111 -8.41181
ltibia 38.0077
lfoot -24.7038 14.5445
ltoes -13.5139
41
root -29.6174 16.4298 1.98448 -50.1381 86.1652 -53.23
lowerback 9.84249 1.89452 3.29455
upperback 5.65677 3.00804 1.29567
thorax 0.462346 1.65404 -0.78194
lowerneck -21.1921 1.37086 5.62026
upperneck 25.4585 1.89268 -5.51466
head 11.9938 0.764532 -2.69332
rclavicle -2.04748e-014 -1.98785e-014
rhumerus -33.7969 13.452 -91.2721
rradius 34.9
rwrist -12.8413
rhand -19.8698 -36.9022
rfingers 7.12502
rthumb 6.4655 -66.7835
lclavicle -2.04748e-014 -1.98785e-014
lhumerus -39.496 -18.6224 91.5245
lradius 53.1472
lwrist 14.3657
lhand -33.3872 -32.2834
lfingers 7.12502
lthumb -6.58803 -2.40585
rfemur 5.79685 -3.13242 21.5405
rtibia 11.8616
rfoot -29.3916 -4.04693
rtoes 4.92289
lfemur -8.35758 6.94756 -7.14653
ltibia 40.7212
lfoot -24.483 14.27
ltoes -14.2723
